<svg width="40" height="40" fill="#000" xmlns="http://www.w3.org/2000/svg">
<path fill-rule="evenodd" clip-rule="evenodd" d="M7.66699 7.00098C7.66699 4.23955 9.90557 2.00098 12.667 2.00098C15.4284 2.00098 17.667 4.23955 17.667 7.00098V10.001H19.667V20.001C19.667 21.1055 18.7716 22.001 17.667 22.001H7.66699C6.56242 22.001 5.66699 21.1055 5.66699 20.001V10.001H15.667V7.00098C15.667 5.34412 14.3238 4.00098 12.667 4.00098C11.0101 4.00098 9.66699 5.34412 9.66699 7.00098V8.00098H7.66699V7.00098ZM12.667 18.001C13.7716 18.001 14.667 17.1055 14.667 16.001C14.667 14.8964 13.7716 14.001 12.667 14.001C11.5624 14.001 10.667 14.8964 10.667 16.001C10.667 17.1055 11.5624 18.001 12.667 18.001Z" />
</svg>
